<?xml version="1.0" encoding="UTF-8"?>
<svg width="121px" height="30px" viewBox="0 0 121 30" version="1.1" xmlns="http://www.w3.org/2000/svg" xmlns:xlink="http://www.w3.org/1999/xlink">
    <!-- Generator: Sketch 61.1 (89650) - https://sketch.com -->
    <title>Logo</title>
    <desc>Created with Sketch.</desc>
    <g id="楼盘管理" stroke="none" stroke-width="1" fill="none" fill-rule="evenodd">
        <g id="楼盘管理-展开列表" transform="translate(-20.000000, -10.000000)" fill="#FFFFFF">
            <g id="top-bar">
                <g id="Logo" transform="translate(20.000000, 10.000000)">
                    <g id="logo">
                        <path d="M12.0480251,22.9633011 L12.0480251,21.5073994 L12.8308068,21.5073994 C13.3332525,21.5073994 13.7645362,21.3419561 14.1246579,21.0110693 C14.4847796,20.6861987 14.664842,20.2871283 14.664842,19.8138609 C14.664842,19.3446034 14.4847796,18.9435295 14.1246579,18.6106364 C13.768848,18.2797497 13.3375643,18.1143063 12.8308037,18.1143063 L11,18.1143063 L11,22.9633011 L12.0480251,22.9633011 Z M12.8308037,20.5448198 L12.0480219,20.5418118 L12.0480219,19.079894 L12.8308037,19.079894 C13.2580224,19.079894 13.6168201,19.4178383 13.6168201,19.8138609 C13.6168201,20.2103438 13.2597737,20.5448198 12.8308037,20.5448198 Z M16.1657129,22.9633011 L16.1657129,20.9539161 L17.673053,22.8850915 L19.1771585,20.9539161 L19.1771585,22.9633011 L20.2251804,22.9633011 L20.2251804,18 L17.673053,21.2577303 L15.117691,18 L15.117691,22.9633011 L16.1657129,22.9633011 Z M22.333095,23 C23.2108311,23 24,22.3396424 24,21.5219168 C24,20.8468538 23.4195883,20.3806337 22.7616811,20.2041481 C22.3995188,20.1041359 21.8048702,19.9879495 21.8048702,19.5511432 C21.8048702,19.282001 22.0452599,19.0584498 22.3362539,19.0584498 C22.6225065,19.0584498 22.8628961,19.282001 22.8628961,19.5482027 L23.9035295,19.3437721 C23.7959842,18.6245869 23.1317531,18.0715913 22.3299299,18.0715913 C21.4506113,18.0715913 20.7373552,18.7304771 20.7373552,19.5482027 C20.7373552,20.2085573 21.2987888,20.693901 21.9345526,20.8953882 C22.2951386,21.0115775 22.9340676,21.0733456 22.9340676,21.5160358 C22.9340676,21.785178 22.6145999,22.0087293 22.3251854,22.0087293 L22.3299299,22.0131415 C22.0357708,22.0131415 21.7194683,21.7925337 21.7194683,21.5219168 L20.678838,21.7278192 C20.7974518,22.4499478 21.5265242,23 22.333095,23 Z" id="PMS" fill-rule="nonzero"></path>
                        <path d="M32.297861,18 C31.8004475,18 31.3609521,18.3047285 31.0509204,18.7968477 C30.7450621,19.3083157 30.5872935,19.8987948 30.5960937,20.4991244 C30.5960937,21.1541156 30.7715512,21.7600701 31.0509204,22.2031523 C31.3609521,22.6935201 31.8004475,23 32.297861,23 C32.7952745,23 33.2364734,22.6952715 33.5465051,22.2031523 C33.8515557,21.6907622 34.0086998,21.0998014 33.9996283,20.4991244 C33.9996283,19.8423818 33.8258743,19.2416813 33.5465051,18.7968477 C33.2364734,18.3064799 32.796978,18 32.297861,18 L32.297861,18 Z M32.852427,19.4032651 C33.0359803,19.6761696 33.1489362,20.0650585 33.1489362,20.5 C33.1489362,20.9349415 33.0359803,21.3221247 32.852427,21.5950292 C32.7006426,21.8201754 32.5029698,21.9583333 32.2982373,21.9583333 C32.0917399,21.9583333 31.895832,21.8201754 31.7422826,21.5950292 C31.5392489,21.2641436 31.4370769,20.8845556 31.4475385,20.5 C31.4475385,20.0650585 31.5604943,19.6778753 31.7422826,19.4032651 C31.895832,19.1781189 32.0917399,19.0416667 32.2982373,19.0416667 C32.5029698,19.0416667 32.7006426,19.1781189 32.852427,19.4032651 L32.852427,19.4032651 Z M28.8149831,19.3870403 C28.8149831,19.6742557 28.609795,19.943958 28.1333412,20.0385289 L27.9420642,20.4448336 C28.6550059,20.4798599 29.0445156,20.9124343 29.0427767,21.3905429 C29.0368778,21.6902735 28.8130588,21.9400313 28.5176159,21.9765654 C28.2221729,22.0130995 27.9450106,21.8252925 27.8672922,21.5359019 L26.9787234,21.7845884 C27.0621898,22.145359 27.2569446,22.4500875 27.5177769,22.6637478 C27.7768703,22.8739054 28.1003024,23 28.4428623,23 C28.845207,22.9985184 29.2293041,22.8307387 29.5053194,22.5359019 C29.7972799,22.2293994 29.9594147,21.8205366 29.9574468,21.3957968 C29.9594147,20.9710571 29.7972799,20.5621943 29.5053194,20.2556918 L29.4757584,20.2276707 C29.6399042,19.9819134 29.7265709,19.6919766 29.7244185,19.3957969 C29.7270663,19.0312061 29.5929192,18.6790547 29.3488199,18.4098074 C29.1166977,18.151057 28.7873601,18.0023675 28.4411234,18 C28.1440318,18.0017743 27.8577803,18.1126102 27.6360209,18.3117338 C27.4036493,18.5186199 27.245377,18.7968071 27.1856504,19.1033275 L28.0863914,19.3117338 C28.1011994,19.2251028 28.1447197,19.1460828 28.2098521,19.0875657 C28.3527972,18.9603702 28.5707923,18.9728715 28.698478,19.1155867 C28.7645555,19.1856393 28.8062887,19.2837128 28.8062887,19.3940455 L28.8149831,19.3870403 L28.8149831,19.3870403 Z M24,18 L24,19.497373 L24.8520575,19.497373 L24.8520575,18.9789842 L25.8084485,18.9789842 L24.7442461,23 L25.6345592,23 L26.9787234,18 L24,18 Z" id="形状" fill-rule="nonzero"></path>
                        <g id="组合四">
                            <path d="M23.1628692,0.481336473 C22.5487602,-0.14033581 21.502945,-0.180245027 20.8941833,0.481336473 C16.6151461,5.13039076 21.4438529,-0.112903974 17.1654099,4.53602714 C16.5273766,5.22926502 17.0804952,6.23221841 18.8247657,7.54488731 C21.8680987,4.2385811 19.0261893,7.32872348 22.0686905,4.02241727 C25.7952911,7.79396148 29.5217728,11.565752 33.2484922,15.3375426 C34.729222,16.8363554 36.9998092,14.4860228 35.5175345,12.9854855 C31.3992732,8.817559 27.2811306,4.64938615 23.1628692,0.481336473 Z" id="Fill-3"></path>
                            <path d="M15.5383268,0.468661428 C14.9246646,-0.136640344 13.8799312,-0.175498631 13.2717301,0.468661428 C8.99663326,4.99529205 4.72224878,9.52180274 0.44774557,14.0483134 C-0.508422986,15.0607877 0.158544353,16.8127687 1.58104393,16.8127687 L5.1078504,16.8127687 L5.1078504,28.3806648 C5.1078504,29.2634915 5.83690815,30 6.71080394,30 L21.9687835,30 C24.0359311,30 24.0359311,26.7613297 21.9687835,26.7613297 L8.31375748,26.7613297 L8.31375748,15.1934336 C8.31375748,14.3107268 7.58469974,13.5740984 6.71080394,13.5740984 L5.32487003,13.5740984 C8.36540056,10.3548573 11.4054562,7.13573602 14.445037,3.91649486 C18.1683246,7.5887229 21.8913747,11.2611908 25.6146623,14.9336587 C27.0940286,16.3930033 29.3625249,14.104562 27.8816152,12.6435384 C23.7671462,8.585366 19.6527958,4.52695375 15.5383268,0.468661428 Z" id="Fill-1"></path>
                        </g>
                    </g>
                    <path d="M49.4316079,23 L49.4316079,18.4962779 L51.9947147,18.4962779 C53.639901,18.4962779 55.0520776,17.9844913 56.2312445,16.9609181 C57.4104114,15.9559553 58,14.721461 58,13.2574442 C58,11.8058313 57.4104114,10.5651395 56.2312445,9.5353598 C55.0661959,8.5117866 53.6540193,8 51.9947043,8 L46,8 L46,23 L49.4316079,23 Z M51.4948454,15 L49,14.9917864 L49,11 L51.4948454,11 C52.8564568,11 54,11.9227616 54,13.0041068 C54,14.0867086 52.8620385,15 51.4948454,15 Z M62.2830906,23 L62.2830906,16.5224242 L67.0050665,22.7478788 L71.7169094,16.5224242 L71.7169094,23 L75,23 L75,7 L67.0050665,17.5018182 L59,7 L59,23 L62.2830906,23 Z M81.4790544,23 C84.3861985,23 87,20.8561597 87,18.2014267 C87,16.0098455 85.0776219,14.4962693 82.8985716,13.9233115 C81.6990561,13.5986236 79.7295243,13.2214264 79.7295243,11.8033417 C79.7295243,10.9295759 80.5257173,10.2038204 81.4895168,10.2038204 C82.4376122,10.2038204 83.2338053,10.9295759 83.2338053,11.7937954 L86.6804807,11.1301145 C86.3242806,8.79529147 84.1242848,7 81.4685712,7 C78.5561855,7 76.1938145,9.13906237 76.1938145,11.7937954 C76.1938145,13.9376261 78.053335,15.5132865 80.1590444,16.1674115 C81.3533392,16.5446182 83.4695318,16.7451473 83.4695318,18.1823341 C83.4695318,19.0560999 82.411425,19.7818554 81.4528568,19.7818554 L81.4685712,19.7961796 C80.4942885,19.7961796 79.446665,19.0799799 79.446665,18.2014267 L76,18.8698855 C76.3928601,21.2142643 78.807616,23 81.4790544,23 Z" id="PMS" fill-rule="nonzero"></path>
                    <path d="M115.499963,7 C113.892696,7 112.472576,7.97513134 111.470787,9.54991251 C110.482482,11.1866101 109.972692,13.0761434 110.001128,14.9971979 C110.001128,17.0931699 110.568075,19.0322242 111.470787,20.4500875 C112.472576,22.0192644 113.892696,23 115.499963,23 C117.107231,23 118.532855,22.0248687 119.534645,20.4500875 C120.520339,18.810439 121.028111,16.9193646 120.998799,14.9971979 C120.998799,12.8956218 120.437356,10.9733801 119.534645,9.54991251 C118.532855,7.98073559 117.112735,7 115.499963,7 L115.499963,7 Z M117.129004,11.1157894 C117.668192,11.9578947 118,13.1578947 118,14.5 C118,15.8421053 117.668192,17.0368421 117.129004,17.8789474 C116.683138,18.5736842 116.102474,19 115.501072,19 C114.894486,19 114.319007,18.5736842 113.867955,17.8789474 C113.271544,16.8579289 112.971413,15.6866287 113.002144,14.5 C113.002144,13.1578947 113.333952,11.9631579 113.867955,11.1157894 C114.319007,10.4210526 114.894486,10 115.501072,10 C116.102474,10 116.683138,10.4210526 117.129004,11.1157894 L117.129004,11.1157894 Z M104.548128,11.4385289 C104.548128,12.3576181 103.928166,13.2206655 102.488595,13.5232924 L101.910665,14.8234676 C104.064768,14.9355516 105.241643,16.3197898 105.23639,17.8497373 C105.218567,18.8088753 104.542313,19.6081001 103.649654,19.7250093 C102.756994,19.8419184 101.919568,19.2409361 101.684747,18.3148861 L99,19.110683 C99.2521876,20.2651488 99.8406254,21.2402801 100.628712,21.923993 C101.411544,22.5964974 102.388771,23 103.423791,23 C104.639447,22.9952588 105.799969,22.4583638 106.633929,21.5148861 C107.516067,20.534078 108.005946,19.2257172 108,17.8665499 C108.005946,16.5073826 107.516067,15.1990218 106.633929,14.2182137 L106.544613,14.1285464 C107.040568,13.3421229 107.302425,12.4143252 107.295922,11.46655 C107.303922,10.2998594 106.898606,9.17297493 106.161077,8.31138353 C105.459737,7.48338236 104.464667,7.00757596 103.418537,7 C102.520896,7.00567775 101.656008,7.36035264 100.985977,7.9975482 C100.283883,8.65958356 99.8056748,9.54978273 99.6252151,10.530648 L102.34674,11.1975482 C102.391481,10.9203291 102.522975,10.6674649 102.719767,10.4802101 C103.151666,10.0731846 103.810323,10.1131887 104.196116,10.5698774 C104.395764,10.7940456 104.521858,11.1078809 104.521858,11.4609457 L104.548128,11.4385289 L104.548128,11.4385289 Z M89,7 L89,11.7915937 L91.5744307,11.7915937 L91.5744307,10.1327496 L94.464098,10.1327496 L91.2486865,23 L93.9387039,23 L98,7 L89,7 Z" id="形状" fill-rule="nonzero"></path>
                </g>
            </g>
        </g>
    </g>
</svg>
