<?xml version="1.0" encoding="UTF-8"?>
<svg width="235px" height="55px" viewBox="0 0 235 55" version="1.1" xmlns="http://www.w3.org/2000/svg" xmlns:xlink="http://www.w3.org/1999/xlink">
    <!-- Generator: Sketch 61.1 (89650) - https://sketch.com -->
    <title>logo</title>
    <desc>Created with Sketch.</desc>
    <g id="登录+首页" stroke="none" stroke-width="1" fill="none" fill-rule="evenodd">
        <g id="登录一" transform="translate(-825.000000, -217.000000)">
            <g id="编组" transform="translate(700.000000, 217.000000)">
                <g id="logo" transform="translate(125.000000, 0.000000)">
                    <g>
                        <path d="M21.8541982,41.9339419 L21.8541982,39.313319 L23.2391198,39.313319 C24.1280621,39.313319 24.8911025,39.0155209 25.5282409,38.4199248 C26.1653792,37.8351577 26.4839512,37.1168309 26.4839512,36.2649497 C26.4839512,35.4202861 26.1653792,34.6983531 25.5282409,34.0991456 C24.898731,33.5035495 24.1356907,33.2057514 23.2391142,33.2057514 L20,33.2057514 L20,41.9339419 L21.8541982,41.9339419 Z M23.2391142,37.5806757 L21.8541926,37.5752612 L21.8541926,34.9438092 L23.2391142,34.9438092 C23.9949627,34.9438092 24.6297586,35.552109 24.6297586,36.2649497 C24.6297586,36.9786188 23.9980612,37.5806757 23.2391142,37.5806757 Z M29.1393381,41.9339419 L29.1393381,38.3170491 L31.8061707,41.7931647 L34.4672804,38.3170491 L34.4672804,41.9339419 L36.321473,41.9339419 L36.321473,33 L31.8061707,38.8639146 L27.2851456,33 L27.2851456,41.9339419 L29.1393381,41.9339419 Z M40.0508605,42 C41.6037781,42 43,40.8113564 43,39.3394503 C43,38.1243369 41.9731177,37.2851407 40.8091281,36.9674665 C40.1683794,36.7874446 39.1163089,36.5783092 39.1163089,35.7920578 C39.1163089,35.3076019 39.5416136,34.9052096 40.0564492,34.9052096 C40.5628961,34.9052096 40.9882008,35.3076019 40.9882008,35.7867649 L42.8293215,35.4187897 C42.639049,34.1242564 41.4638708,33.1288643 40.0452606,33.1288643 C38.4895431,33.1288643 37.2276285,34.3148588 37.2276285,35.7867649 C37.2276285,36.9754032 38.220934,37.8490218 39.3457469,38.2116988 C39.9837068,38.4208395 41.1141196,38.532022 41.1141196,39.3288645 C41.1141196,39.8133204 40.5489076,40.2157127 40.0368664,40.2157127 L40.0452606,40.2236546 C39.5248252,40.2236546 38.9652131,39.8265606 38.9652131,39.3394503 L37.124098,39.7100746 C37.3339533,41.009906 38.6238504,42 40.0508605,42 Z" id="PMS" fill="#00479C" fill-rule="nonzero"></path>
                        <path d="M58.9361498,33 C58.0408056,33 57.2497137,33.5485114 56.6916567,34.4343258 C56.1411117,35.3549682 55.8571284,36.4178307 55.8729687,37.4984238 C55.8729687,38.677408 56.1887922,39.7681261 56.6916567,40.5656742 C57.2497137,41.4483362 58.0408056,42 58.9361498,42 C59.8314941,42 60.6256521,41.4514886 61.1837092,40.5656742 C61.7328002,39.643372 62.0156597,38.5796426 61.999331,37.4984238 C61.999331,36.3162872 61.6865737,35.2350263 61.1837092,34.4343258 C60.6256522,33.5516638 59.8345604,33 58.9361498,33 L58.9361498,33 Z M59.9343686,35.5258772 C60.2647645,36.0171053 60.4680851,36.7171053 60.4680851,37.5 C60.4680851,38.2828947 60.2647645,38.9798245 59.9343686,39.4710526 C59.6611567,39.8763158 59.3053457,40.125 58.9368271,40.125 C58.5651317,40.125 58.2124976,39.8763158 57.9361088,39.4710526 C57.5706481,38.8754585 57.3867385,38.1922001 57.4055692,37.5 C57.4055692,36.7171053 57.6088898,36.0201755 57.9361088,35.5258772 C58.2124976,35.120614 58.5651317,34.875 58.9368271,34.875 C59.3053456,34.875 59.6611566,35.120614 59.9343686,35.5258772 L59.9343686,35.5258772 Z M52.6669696,35.4966725 C52.6669696,36.0136602 52.297631,36.4991243 51.4400142,36.669352 L51.0957155,37.4007005 C52.3790106,37.4637478 53.080128,38.2423818 53.076998,39.1029772 C53.0663801,39.6424924 52.6635058,40.0920563 52.1317085,40.1578177 C51.5999112,40.2235791 51.1010191,39.8855266 50.961126,39.3646234 L49.3617021,39.8122592 C49.5119416,40.4616462 49.8625003,41.0101576 50.3319984,41.3947461 C50.7983666,41.7730298 51.3805444,42 51.9971521,42 C52.7213727,41.9973331 53.4127473,41.6953296 53.9095748,41.1646234 C54.4351038,40.6129189 54.7269464,39.8769659 54.7234043,39.1124343 C54.7269464,38.3479027 54.4351038,37.6119498 53.9095748,37.0602452 L53.8563651,37.0098073 C54.1518276,36.5674442 54.3078276,36.0455579 54.3039533,35.5124344 C54.3087193,34.8561709 54.0672546,34.2222984 53.6278759,33.7376532 C53.2100558,33.2719026 52.6172482,33.0042615 51.9940221,33 C51.4592572,33.0031937 50.9440045,33.2026984 50.5448376,33.5611209 C50.1265687,33.9335158 49.8416786,34.4342528 49.7341707,34.9859895 L51.3555045,35.3611209 C51.3821589,35.2051851 51.4604955,35.062949 51.5777337,34.9576182 C51.835035,34.7286663 52.2274262,34.7511686 52.4572604,35.0080561 C52.5761999,35.1341507 52.6513196,35.310683 52.6513196,35.509282 L52.6669696,35.4966725 L52.6669696,35.4966725 Z M44,33 L44,35.6952714 L45.5337034,35.6952714 L45.5337034,34.7621716 L47.2552073,34.7621716 L45.339643,42 L46.9422066,42 L49.3617021,33 L44,33 Z" id="形状" fill="#E50113" fill-rule="nonzero"></path>
                        <g id="组合四">
                            <path d="M42.4652602,0.8824502 C41.3393938,-0.257282319 39.4220658,-0.330449217 38.3060028,0.8824502 C30.4611012,9.40571639 39.3137304,-0.206990619 31.4699181,8.31604975 C30.3001905,9.58698587 31.3142413,11.4257338 34.5120704,13.8322934 C40.0915143,7.77073202 34.8813471,13.435993 40.459266,7.37443167 C47.291367,14.2889294 54.1232501,21.2038788 60.955569,28.1188281 C63.6702404,30.8666516 67.8329835,26.5577085 65.11548,23.8067234 C57.5653341,16.1655248 50.0154061,8.52387461 42.4652602,0.8824502 Z" id="Fill-3" fill="#E50113"></path>
                            <path d="M28.4869325,0.859212617 C27.3618851,-0.250507297 25.4465404,-0.321747489 24.3315051,0.859212617 C16.4938277,9.15803543 8.65745609,17.4566384 0.820866877,25.7552413 C-0.932108807,27.6114441 0.290664647,30.8234093 2.89858055,30.8234093 L9.3643924,30.8234093 L9.3643924,52.0312189 C9.3643924,53.6497345 10.7009983,55 12.3031406,55 L40.2761031,55 C44.0658737,55 44.0658737,49.0624378 40.2761031,49.0624378 L15.2418887,49.0624378 L15.2418887,27.8546282 C15.2418887,26.2363325 13.9052829,24.8858471 12.3031406,24.8858471 L9.76226172,24.8858471 C15.3365677,18.983905 20.910003,13.0821827 26.4825678,7.18024057 C33.308595,13.9126587 40.134187,20.6455165 46.9602142,27.3783743 C49.6723858,30.0538393 53.8312956,25.8583637 51.1162945,23.1798204 C43.5731013,15.7398377 36.0301257,8.2994152 28.4869325,0.859212617 Z" id="Fill-1" fill="#00479C"></path>
                        </g>
                    </g>
                    <path d="M96.2912811,43 L96.2912811,33.9925558 L100.99031,33.9925558 C104.006485,33.9925558 106.595476,32.9689826 108.757282,30.9218362 C110.919088,28.9119107 112,26.442922 112,23.5148883 C112,20.6116625 110.919088,18.130279 108.757282,16.0707196 C106.621359,14.0235732 104.032369,13 100.990291,13 L90,13 L90,43 L96.2912811,43 Z M100.989691,28 L96,27.9815195 L96,19 L100.989691,19 C103.712914,19 106,21.0762135 106,23.5092402 C106,25.9450945 103.724077,28 100.989691,28 Z M121.360988,43 L121.360988,30.449697 L130.509816,42.5115152 L139.639012,30.449697 L139.639012,43 L146,43 L146,12 L130.509816,32.3472727 L115,12 L115,43 L121.360988,43 Z M158.961917,43 C164.247634,43 169,38.8463095 169,33.7027642 C169,29.4565756 165.504767,26.5240219 161.542857,25.413916 C159.36192,24.7848332 155.780953,24.0540137 155.780953,21.3064745 C155.780953,19.6135534 157.228577,18.2074021 158.98094,18.2074021 C160.70475,18.2074021 162.152373,19.6135534 162.152373,21.2879786 L168.419056,20.0020969 C167.771419,15.4783772 163.771427,12 158.942857,12 C153.64761,12 149.35239,16.1444333 149.35239,21.2879786 C149.35239,25.4416506 152.733336,28.4944925 156.561899,29.7618598 C158.733344,30.4926978 162.580967,30.8812229 162.580967,33.6657724 C162.580967,35.3586935 160.657136,36.7648448 158.914285,36.7648448 L158.942857,36.7925979 C157.171434,36.7925979 155.266664,35.404961 155.266664,33.7027642 L149,34.9979031 C149.714291,39.5401372 154.104756,43 158.961917,43 Z" id="PMS" fill="#00479C" fill-rule="nonzero"></path>
                    <path d="M224.49993,12 C221.431511,12 218.720373,13.889317 216.807865,16.9404555 C214.921102,20.1115571 213.947867,23.7725279 214.002153,27.494571 C214.002153,31.5555166 215.084507,35.3124344 216.807865,38.0595445 C218.720373,41.0998248 221.431511,43 224.49993,43 C227.56835,43 230.289995,41.110683 232.202503,38.0595445 C234.084284,34.8827256 235.053667,31.2187689 234.997707,27.494571 C234.997707,23.4227672 233.925862,19.6984239 232.202503,16.9404555 C230.289995,13.9001752 227.578858,12 224.49993,12 L224.49993,12 Z M228.08381,21.2315789 C229.270023,22.9157895 230,25.3157895 230,28 C230,30.6842105 229.270023,33.0736841 228.08381,34.7578947 C227.102903,36.1473684 225.825442,37 224.502358,37 C223.167869,37 221.901814,36.1473684 220.909502,34.7578947 C219.597396,32.7158577 218.93711,30.3732575 219.004717,28 C219.004717,25.3157895 219.734695,22.9263159 220.909502,21.2315789 C221.901814,19.8421052 223.167869,19 224.502358,19 C225.825442,19 227.102903,19.8421052 228.08381,21.2315789 L228.08381,21.2315789 Z M203.096255,20.5996497 C203.096255,22.3803851 201.856333,24.0525393 198.977191,24.6388791 L197.821331,27.1579685 C202.129536,27.3751313 204.483287,30.0570928 204.472779,33.021366 C204.437133,34.879696 203.084627,36.4281939 201.299307,36.6547054 C199.513988,36.881217 197.839135,35.7168137 197.369494,33.9225918 L192,35.4644483 C192.504375,37.7012258 193.681251,39.5905428 195.257423,40.9152364 C196.823088,42.2182137 198.777542,43 200.847582,43 C203.278894,42.9908139 205.599938,41.9505799 207.267858,40.1225919 C209.032134,38.222276 210.011891,35.6873271 210,33.0539404 C210.011891,30.4205538 209.032134,27.8856048 207.267858,25.985289 L207.089226,25.8115586 C208.081136,24.2878632 208.60485,22.490255 208.591843,20.6539406 C208.607843,18.3934776 207.797212,16.2101389 206.322155,14.5408056 C204.919473,12.9365533 202.929333,12.0146784 200.837074,12 C199.041792,12.0110006 197.312015,12.6981832 195.971955,13.9327496 C194.567766,15.2154431 193.61135,16.940204 193.25043,18.8406304 L198.693479,20.1327497 C198.782962,19.5956376 199.045949,19.1057132 199.439535,18.7429071 C200.303332,17.9542951 201.620645,18.031803 202.392231,18.9166375 C202.791528,19.3509634 203.043716,19.9590193 203.043716,20.6430823 L203.096255,20.5996497 L203.096255,20.5996497 Z M173,12 L173,21.2837127 L178.148861,21.2837127 L178.148861,18.0697023 L183.928196,18.0697023 L177.497373,43 L182.877408,43 L191,12 L173,12 Z" id="形状" fill="#E50113" fill-rule="nonzero"></path>
                </g>
            </g>
        </g>
    </g>
</svg>